<svg viewBox="0 0 1000 700" xmlns="http://www.w3.org/2000/svg">
<defs>
<pattern id="a" x="0" y="0" width="200" height="200" patternUnits="userSpaceOnUse" patternTransform="translate(0 30)">
<svg width="100" height="100" viewBox="0 0 45 50" xml:space="preserve" xmlns="http://www.w3.org/2000/svg">
<path style="fill:#8c97a6;stroke-width:.22c2f5" d="M79.102 156.362c-2.248-.497-2.956-.815-3.433-1.543-.925-1.412.811-3.163 6.474-6.53 4.504-2.678 5.738-4.367 6.75-6.43.69-1.753 1.842-5.21 1.034-6.866-2.167 7.364-3.603 9.122-10.176 13.046-6.838 3.403-14.017 7.086-20.417 6.385 3.857-3.652 7.295-8.64 9.309-13.147 2.403-5.437 3.777-7.276 6.06-9.99l2.205-2.624c1.066.173 1.99.689 3.032.985 1.393.289-3.494-2.23-2.425-2.482.757-.138 1.645-1.033 1.793-1.809.07-.365-.058-1.243-.284-1.95-.34-1.062-.355-1.469-.09-2.356.177-.59.418-1.073.535-1.073.117 0 .328.41 1.223.91.19.107.22 1.152.908 1.33.472.085.87-.047.87-.047 1.032.677 3.525 3.435 3.843 3.476.293-.101 1.746-2.085 3.042-3.275.087-.08.528.09 1.198-.116.437-.136.584-1.187.752-1.33.72-.607 1.177-.948 1.415-.948.215 0 .802 1.621.802 2.215 0 .252-.183.811-.407 1.244-.37.715-.365.872.046 1.74.304.64.79 1.105 1.475 1.411l1.022.458-.74.792c-.563.81-1.911 1.16-2.357 1.851.137.137 1.958-.24 2.89-.598 1.076-.413.784 5.63-.443 9.157-1.749 5.03-6.83 9.911-12.925 12.42-2.393.985-3.511 2.07-3.246 3.153.269 1.094.86 1.828 1.922 2.389 1.18.623.678.669-1.657.152zm16.244-15.844c.166-.2.62-1.242 1.008-2.316 1.283-3.967 1.902-11.517-1.23-12.702-.933-.325-.903-.099-.404-3.034.127-.747.064-1.313-.201-1.82-.36-.686-.328-.85.483-2.487.478-.964.942-2.208 1.033-2.765l.164-1.013-1.14.66c-.627.362-1.778.845-2.557 1.072-1.34.391-1.48.385-2.565-.11-1.38-.628-3.546-.677-5.808-.13-2.952.712-5.297.304-6.59-1.149-.72-.81-.896-.714-1.092.594-.2 1.334.528 3.343 1.41 3.895.486.303.495.385.127 1.265-.273.653-.34 1.347-.218 2.271.343 2.62.349 2.594-.549 2.83-1.2.317-1.588 1.01-1.24 1.933.828.462-3.694 5.156-4.977 6.225-.093 0-.511-1.042-.929-2.315-1.435-4.861-.75-9.882 1.177-13.692 1.278-2.505 4.515-5.731 7.113-7.09 5.159-2.696 11.106-2.699 16.299-.007 2.837 1.47 5.863 4.58 7.293 7.494 2.503 5.101 2.511 10.505.023 15.553-1.154 2.342-3.46 5.064-5.445 6.43-1.207.83-1.667.99-1.185.408zM84.113 122.39c-1.17-1.11-2.851-2.404-3.736-2.876-1.586-.915-2.299-1.765-2.767-3.246l1.248.664c1.455.774 3.172.868 4.874.267 1.449-.51 3.77-.506 5.512.012 1.625.482 2.867.326 4.503-.567.887-.484 1.115-.533.993-.213-.437 1.676-2.133 2.786-3.355 3.443-2.094 1.257-3.786 2.602-5.146 4.535l-2.126-2.019z" transform="translate(-59.334 -108.616)"/>
</svg>
</pattern>
</defs>
<rect width="100%" height="100%" fill="#19304e"/>
<rect width="100%" height="100%" fill="url(#a)"/>
</svg>