<?xml version="1.0" encoding="UTF-8" standalone="no"?>
<!-- Created with Inkscape (http://www.inkscape.org/) -->

<svg
   width="44.502285mm"
   height="48.100319mm"
   viewBox="0 0 44.502285 48.100319"
   version="1.1"
   id="svg21"
   xml:space="preserve"
   inkscape:export-filename="bitmap.svg"
   inkscape:export-xdpi="96"
   inkscape:export-ydpi="96"
   xmlns:inkscape="http://www.inkscape.org/namespaces/inkscape"
   xmlns:sodipodi="http://sodipodi.sourceforge.net/DTD/sodipodi-0.dtd"
   xmlns="http://www.w3.org/2000/svg"
   xmlns:svg="http://www.w3.org/2000/svg"><sodipodi:namedview
     id="namedview23"
     pagecolor="#505050"
     bordercolor="#eeeeee"
     borderopacity="1"
     inkscape:showpageshadow="0"
     inkscape:pageopacity="0"
     inkscape:pagecheckerboard="0"
     inkscape:deskcolor="#505050"
     inkscape:document-units="mm"
     showgrid="false" /><defs
     id="defs18" /><g
     inkscape:label="Capa 1"
     inkscape:groupmode="layer"
     id="layer1"
     transform="translate(-59.334127,-108.61622)"><path
       style="fill:#ffffff;stroke-width:0.264583"
       d="m 79.102193,156.36229 c -2.247802,-0.4973 -2.95584,-0.81567 -3.432776,-1.54357 -0.925197,-1.41203 0.810562,-3.16285 6.473632,-6.52981 4.504299,-2.67802 5.737518,-4.36726 6.750031,-6.42911 0.689451,-1.75337 1.841857,-5.20986 1.033786,-6.86714 -2.167032,7.36423 -3.602753,9.12274 -10.176297,13.04599 -6.837219,3.40343 -14.016188,7.08639 -20.41644,6.3849 3.85684,-3.65121 7.295368,-8.64039 9.308812,-13.14629 2.40302,-5.43715 3.776889,-7.27591 6.059985,-9.9911 l 2.20553,-2.62294 c 1.065343,0.17259 1.990025,0.68838 3.031122,0.9849 1.393643,0.28853 -3.493651,-2.2309 -2.42475,-2.48254 0.757327,-0.13766 1.644795,-1.03263 1.79306,-1.80823 0.06989,-0.36562 -0.05781,-1.24292 -0.283784,-1.94956 -0.340016,-1.06326 -0.355468,-1.46968 -0.08961,-2.35704 0.176692,-0.58974 0.417079,-1.07226 0.534199,-1.07226 0.117118,0 0.328762,0.41004 1.223557,0.91028 0.189558,0.10597 0.21904,1.1515 0.907407,1.32881 0.472612,0.0857 0.870449,-0.0468 0.870449,-0.0468 1.031794,0.67727 3.524697,3.43476 3.842861,3.47578 0.29272,-0.10089 1.746504,-2.08503 3.041878,-3.27463 0.08726,-0.0801 0.528103,0.091 1.197682,-0.11637 0.437401,-0.13546 0.584259,-1.18612 0.752765,-1.32873 0.718783,-0.60832 1.177175,-0.94842 1.415177,-0.94842 0.21496,0 0.801539,1.62078 0.801539,2.21474 0,0.25156 -0.18297,0.8112 -0.406598,1.24365 -0.369893,0.71529 -0.365734,0.8724 0.04607,1.74021 0.303388,0.63934 0.789644,1.10481 1.474433,1.4114 l 1.021755,0.45745 -0.740405,0.79261 c -0.562269,0.80909 -1.910219,1.15987 -2.356022,1.8507 0.13647,0.13647 1.95801,-0.24045 2.889534,-0.59791 1.076166,-0.41296 0.784169,5.62934 -0.442498,9.15662 -1.749052,5.0294 -6.82957,9.9112 -12.925276,12.41971 -2.393368,0.98493 -3.511344,2.07108 -3.24562,3.15323 0.268663,1.09412 0.858959,1.82806 1.92143,2.389 1.179701,0.62284 0.678328,0.66896 -1.656596,0.15239 z m 16.243755,-15.84471 c 0.165693,-0.19965 0.619157,-1.24144 1.007703,-2.3151 1.283046,-3.96789 1.902019,-11.5177 -1.229596,-12.70231 -0.932899,-0.32521 -0.902721,-0.0987 -0.404341,-3.03418 0.126796,-0.74684 0.06426,-1.31311 -0.200885,-1.81917 -0.359648,-0.68641 -0.327835,-0.85017 0.483259,-2.48749 0.477538,-0.96399 0.942303,-2.20839 1.032811,-2.76533 l 0.164561,-1.01261 -1.140299,0.65927 c -0.627166,0.3626 -1.777862,0.84533 -2.557103,1.07274 -1.339342,0.39086 -1.479584,0.38486 -2.56517,-0.10968 -1.379714,-0.62853 -3.546162,-0.67761 -5.807612,-0.13156 -2.952768,0.71297 -5.297188,0.30455 -6.589445,-1.14797 -0.72082,-0.81021 -0.896543,-0.71465 -1.09283,0.59428 -0.199932,1.33325 0.528156,3.34288 1.410843,3.89413 0.485529,0.30321 0.493734,0.38548 0.126185,1.26515 -0.272944,0.65325 -0.339743,1.34755 -0.218527,2.27132 0.343874,2.6206 0.34907,2.59377 -0.548264,2.83028 -1.200058,0.31628 -1.588418,1.01047 -1.240197,1.93302 0.828173,0.46177 -3.694327,5.15584 -4.976715,6.22445 -0.09351,0 -0.511495,-1.04179 -0.928865,-2.3151 -1.435751,-4.86108 -0.750136,-9.88213 1.176959,-13.69219 1.277372,-2.50451 4.514467,-5.73074 7.112813,-7.08891 5.158372,-2.69632 11.106216,-2.69943 16.298587,-0.008 2.837286,1.47041 5.86293,4.57949 7.29317,7.49429 2.50325,5.10157 2.51138,10.50527 0.0234,15.55281 -1.15454,2.34229 -3.459551,5.06451 -5.444952,6.4305 -1.207104,0.83051 -1.667767,0.989 -1.185463,0.40786 z M 84.112637,122.39136 c -1.169713,-1.11006 -2.850867,-2.40424 -3.735896,-2.87596 -1.586221,-0.91497 -2.298619,-1.76496 -2.76697,-3.24597 l 1.248638,0.6639 c 1.454748,0.7735 3.171878,0.86758 4.873992,0.26704 1.448377,-0.51102 3.768974,-0.50626 5.511816,0.0113 1.624526,0.48243 2.866716,0.32612 4.503142,-0.56664 0.88714,-0.48399 1.11487,-0.53292 0.992188,-0.21322 -0.436068,1.6764 -2.132661,2.78638 -3.354583,3.44342 -2.094446,1.25641 -3.785598,2.60156 -5.14558,4.53441 l -2.126747,-2.01829 z"
       id="path141"
       sodipodi:nodetypes="ssscccccscccssssscccsssssssscccssssssscccsssscssssssssssccccscsssccsccssssccccs" /></g></svg>
